<svg width="26" height="26" viewBox="0 0 26 26" fill="none" xmlns="http://www.w3.org/2000/svg">
    <path fill-rule="evenodd" clip-rule="evenodd" d="M13 23.4C18.7438 23.4 23.4 18.7438 23.4 13C23.4 7.25624 18.7438 2.6 13 2.6C7.25624 2.6 2.6 7.25624 2.6 13C2.6 18.7438 7.25624 23.4 13 23.4ZM13 26C20.1797 26 26 20.1797 26 13C26 5.8203 20.1797 0 13 0C5.8203 0 0 5.8203 0 13C0 20.1797 5.8203 26 13 26Z" fill="white"/>
    <path fill-rule="evenodd" clip-rule="evenodd" d="M19.0232 9.39387C19.5789 9.84852 19.6608 10.6675 19.2062 11.2232L13.3562 18.3732C13.1346 18.6441 12.8131 18.8141 12.4646 18.845C12.116 18.8758 11.7697 18.7648 11.504 18.537L6.95399 14.637C6.40887 14.1698 6.34574 13.3491 6.81299 12.804C7.28024 12.2589 8.10093 12.1957 8.64605 12.663L12.1862 15.6974L17.1939 9.57681C17.6485 9.02113 18.4676 8.93922 19.0232 9.39387Z" fill="white"/>
</svg>
