<svg width="16" height="16" viewBox="0 0 16 16" fill="none" xmlns="http://www.w3.org/2000/svg">
    <path fill-rule="evenodd" clip-rule="evenodd" d="M7.99944 13.7142C11.1554 13.7142 13.7137 11.1558 13.7137 7.99993C13.7137 4.84402 11.1554 2.28564 7.99944 2.28564C4.84353 2.28564 2.28516 4.84402 2.28516 7.99993C2.28516 11.1558 4.84353 13.7142 7.99944 13.7142ZM7.99939 11.4284C9.89294 11.4284 11.428 9.89343 11.428 7.99988C11.428 6.10633 9.89294 4.57131 7.99939 4.57131C6.10584 4.57131 4.57082 6.10633 4.57082 7.99988C4.57082 9.89343 6.10584 11.4284 7.99939 11.4284Z" fill="white"/>
    <rect y="6.85718" width="3.42857" height="2.28571" rx="0.5" fill="white"/>
    <rect x="4.99023" y="0.500488" width="3.42857" height="2.28571" rx="0.5" transform="rotate(60 4.99023 0.500488)" fill="white"/>
    <rect x="12.9902" y="1.64307" width="3.42857" height="2.28571" rx="0.5" transform="rotate(120 12.9902 1.64307)" fill="white"/>
    <rect x="12.5723" y="6.85718" width="3.42857" height="2.28571" rx="0.5" fill="white"/>
    <rect x="11.2754" y="11.3875" width="3.42857" height="2.28571" rx="0.5" transform="rotate(60 11.2754 11.3875)" fill="white"/>
    <rect x="6.70312" y="12.5305" width="3.42857" height="2.28571" rx="0.5" transform="rotate(120 6.70312 12.5305)" fill="white"/>
</svg>
