<svg width="26" height="26" viewBox="0 0 26 26" fill="none" xmlns="http://www.w3.org/2000/svg">
    <path fill-rule="evenodd" clip-rule="evenodd" d="M23.2697 5.25966C23.5721 5.15214 23.8591 5.45362 23.7376 5.7512L17.7007 20.5355C17.6188 20.7359 17.3841 20.8243 17.1908 20.7274L2.43382 13.3353C2.14094 13.1886 2.16712 12.7615 2.47571 12.6518L23.2697 5.25966ZM25.8001 6.59649C26.6506 4.51344 24.6416 2.40308 22.5245 3.15571L1.73052 10.5479C-0.429621 11.3158 -0.612844 14.3051 1.43727 15.3321L6.53793 17.8871C6.49754 18.0399 6.47581 18.2018 6.47581 18.3709V20.0758C6.47581 21.6088 8.22278 22.4839 9.44695 21.5641L10.8084 20.5412C10.9434 20.4397 11.0596 20.3251 11.1574 20.2011L16.1943 22.7242C17.5474 23.4021 19.1903 22.7836 19.7631 21.3808L25.8001 6.59649ZM8.70417 19.3316V18.9729L8.99061 19.1164L8.70417 19.3316Z" fill="white"/>
    <path fill-rule="evenodd" clip-rule="evenodd" d="M6.58286 16.0951L23.9643 3.48828L25.2752 5.29535L7.89376 17.9022L6.58286 16.0951Z" fill="white"/>
</svg>
